<svg width="460" height="345" viewBox="0 0 460 345" fill="none" xmlns="http://www.w3.org/2000/svg">
<mask id="mask0_1_3" style="mask-type:luminance" maskUnits="userSpaceOnUse" x="216" y="69" width="162" height="193">
<path d="M377.165 69H216V262H377.165V69Z" fill="white"/>
</mask>
<g mask="url(#mask0_1_3)">
<path d="M310.849 189.804C299.64 199.24 284.167 196.008 276.287 182.585C268.408 169.161 271.106 150.632 282.316 141.196C287.945 136.457 294.65 134.912 300.927 136.254C307.024 137.551 312.717 141.566 316.633 148.009C316.717 148.142 316.797 148.279 316.878 148.415C324.757 161.839 322.059 180.368 310.849 189.804Z" fill="#FCA736"/>
<path d="M310.849 189.804C299.64 199.24 284.167 196.008 276.287 182.585C274.261 179.134 272.934 175.343 272.274 171.457C272.864 172.942 273.567 174.387 274.384 175.778C282.263 189.2 297.736 192.432 308.944 182.997C317.269 175.988 320.9 163.965 318.989 152.741C324.106 165.585 320.895 181.347 310.849 189.804Z" fill="#FC8F06"/>
<path d="M314.362 150.733C310.174 154.258 304.39 153.05 301.446 148.034C299.334 144.437 299.255 139.855 300.927 136.254C307.024 137.551 312.717 141.566 316.633 148.009C316.031 149.042 315.272 149.967 314.362 150.733Z" fill="#FC7504"/>
<path d="M314.362 150.732C310.173 154.258 304.39 153.05 301.446 148.035C301.001 147.278 300.647 146.478 300.383 145.649C303.522 148.91 308.227 149.328 311.782 146.336C312.554 145.686 313.217 144.921 313.767 144.07C314.8 145.26 315.761 146.575 316.633 148.008C316.031 149.044 315.271 149.966 314.362 150.732Z" fill="#FB5820"/>
<path d="M290.3 172.52C287.8 174.624 284.349 173.903 282.591 170.909C280.834 167.915 281.435 163.782 283.935 161.677C286.436 159.572 289.887 160.294 291.645 163.288C293.402 166.281 292.801 170.415 290.3 172.52Z" fill="#FC7504"/>
<path d="M290.301 172.52C287.801 174.625 284.349 173.904 282.591 170.91C282.161 170.178 281.873 169.379 281.719 168.558C283.554 169.956 285.987 169.978 287.876 168.388C289.763 166.799 290.57 164.05 290.092 161.51C290.686 161.961 291.216 162.556 291.645 163.288C293.403 166.282 292.801 170.416 290.301 172.52Z" fill="#FB5820"/>
<path d="M312.137 162.609L312.133 162.601L312.118 162.576C311.573 161.638 311.765 160.349 312.548 159.697C313.328 159.045 314.401 159.273 314.947 160.204L314.952 160.212L314.966 160.237C315.512 161.174 315.319 162.463 314.537 163.116C313.757 163.766 312.683 163.539 312.137 162.609Z" fill="#FC8F06"/>
<path d="M300.346 176.283L300.331 176.257C299.783 175.323 299.971 174.033 300.751 173.376C301.531 172.719 302.608 172.944 303.156 173.878L303.171 173.904C303.72 174.839 303.532 176.128 302.752 176.785C301.972 177.442 300.894 177.217 300.346 176.283Z" fill="#FC7504"/>
<path d="M295.403 176.677L295.399 176.669L295.384 176.644C294.838 175.707 295.031 174.418 295.813 173.765C296.593 173.115 297.666 173.341 298.213 174.272L298.217 174.279L298.232 174.305C298.777 175.243 298.585 176.532 297.802 177.183C297.022 177.835 295.949 177.608 295.403 176.677Z" fill="#FC8F06"/>
<path d="M335.487 148.738C343.205 174.427 332.032 202.847 310.58 212.09C289.127 221.333 265.396 207.951 257.678 182.262C249.96 156.573 261.133 128.153 282.585 118.91C297.937 112.296 315.154 117.137 326.449 131.243C327.109 132.068 327.086 133.377 326.397 134.167C325.709 134.958 324.616 134.93 323.956 134.105C313.604 121.176 297.824 116.74 283.754 122.802C264.094 131.273 253.854 157.319 260.927 180.862C268.001 204.406 289.751 216.669 309.411 208.198C329.071 199.727 339.311 173.681 332.238 150.138C331.702 148.355 331.071 146.601 330.36 144.923C329.928 143.907 330.268 142.661 331.119 142.144C331.97 141.628 333.009 142.034 333.44 143.053C334.214 144.883 334.904 146.795 335.487 148.738Z" fill="#7D17EA"/>
<path d="M260.246 132.308C264.139 130.63 268.43 133.05 269.831 137.711C271.231 142.373 269.211 147.513 265.319 149.19C261.426 150.867 257.135 148.447 255.734 143.785C254.333 139.123 256.354 133.985 260.246 132.308Z" fill="#6062AA"/>
<path d="M260.245 132.307C264.138 130.63 268.43 133.05 269.831 137.712C270.089 138.571 270.231 139.442 270.266 140.308C268.348 137.229 264.905 135.867 261.726 137.236C258.548 138.606 256.621 142.282 256.78 146.118C256.347 145.424 255.992 144.645 255.734 143.785C254.333 139.124 256.352 133.984 260.245 132.307Z" fill="#4E5092"/>
<path d="M330.541 137.321L330.543 137.329L330.552 137.359C330.871 138.436 330.401 139.617 329.502 140C328.606 140.38 327.622 139.822 327.3 138.751L327.297 138.743L327.289 138.714C326.969 137.637 327.439 136.455 328.338 136.073C329.234 135.692 330.219 136.25 330.541 137.321Z" fill="#D72EEA"/>
<path d="M281.012 97.4246C296.196 92.4441 312.091 94.8427 325.769 104.178C339.447 113.514 349.27 128.67 353.429 146.854C356.961 162.295 356.082 178.233 350.887 192.947C345.849 207.215 336.914 219.262 325.729 226.868C324.9 227.432 323.845 227.085 323.375 226.09C322.904 225.098 323.195 223.835 324.024 223.271C334.552 216.112 342.962 204.771 347.705 191.336C352.595 177.486 353.423 162.483 350.098 147.946C346.183 130.828 336.936 116.56 324.059 107.771C311.183 98.982 296.219 96.7245 281.924 101.413C267.629 106.102 255.715 117.176 248.376 132.596C241.036 148.016 239.151 165.935 243.067 183.054C246.982 200.172 256.229 214.44 269.106 223.229C281.982 232.018 296.946 234.275 311.241 229.587C312.161 229.285 313.11 229.934 313.362 231.035C313.614 232.136 313.073 233.273 312.153 233.575C296.969 238.556 281.074 236.157 267.396 226.822C253.718 217.486 243.895 202.33 239.736 184.146C235.577 165.963 237.58 146.928 245.376 130.548C253.172 114.169 265.828 102.405 281.012 97.4246Z" fill="#2400AC"/>
<path d="M334.633 211.878C333.763 208.073 335.633 204.143 338.81 203.101C341.988 202.059 345.269 204.299 346.139 208.104C347.01 211.909 345.14 215.839 341.962 216.881C338.785 217.923 335.504 215.683 334.633 211.878Z" fill="#ECFF85"/>
<path d="M334.633 211.877C333.763 208.074 335.633 204.144 338.811 203.102C339.301 202.941 339.794 202.86 340.281 202.849C337.963 204.424 336.74 207.73 337.476 210.945C338.211 214.162 340.67 216.26 343.335 216.201C342.911 216.488 342.453 216.719 341.963 216.88C338.784 217.922 335.503 215.682 334.633 211.877Z" fill="#C5ED08"/>
<path d="M317.926 226.764L317.951 226.756C318.871 226.454 319.821 227.103 320.073 228.204C320.325 229.306 319.783 230.443 318.864 230.744L318.838 230.753C317.918 231.055 316.969 230.407 316.717 229.305C316.465 228.203 317.006 227.066 317.926 226.764Z" fill="#7D17EA"/>
<path d="M312.729 108.567C311.232 102.019 314.45 95.257 319.918 93.4634C325.386 91.6698 331.033 95.524 332.531 102.072C334.028 108.62 330.81 115.383 325.342 117.177C319.874 118.971 314.227 115.115 312.729 108.567Z" fill="#2CDFC6"/>
<path d="M312.729 108.567C311.232 102.02 314.449 95.2563 319.919 93.4621C320.762 93.1855 321.608 93.042 322.444 93.0225C318.454 95.7317 316.348 101.425 317.615 106.965C318.882 112.507 323.116 116.117 327.703 116.014C326.975 116.506 326.186 116.9 325.343 117.177C319.873 118.971 314.227 115.117 312.729 108.567Z" fill="#00C2CC"/>
<path d="M234.692 154.028C233.821 150.223 235.692 146.293 238.869 145.251C242.047 144.208 245.328 146.448 246.199 150.253C247.069 154.058 245.199 157.988 242.021 159.031C238.844 160.073 235.562 157.833 234.692 154.028Z" fill="#D72EEA"/>
<path d="M234.693 154.029C233.823 150.224 235.692 146.294 238.87 145.251C239.528 145.036 240.188 144.96 240.83 145.012C238.784 146.681 237.748 149.779 238.439 152.8C239.13 155.82 241.34 157.855 243.81 158.042C243.281 158.479 242.68 158.816 242.022 159.031C238.844 160.074 235.563 157.835 234.693 154.029Z" fill="#B100BE"/>
</g>
</svg>
